<?xml version="1.0" standalone="no"?>
<!DOCTYPE svg PUBLIC "-//W3C//DTD SVG 20010904//EN"
 "http://www.w3.org/TR/2001/REC-SVG-20010904/DTD/svg10.dtd">
<svg version="1.0" xmlns="http://www.w3.org/2000/svg"
 width="122.000000pt" height="122.000000pt" viewBox="0 0 122.000000 122.000000"
 preserveAspectRatio="xMidYMid meet">
<metadata>
Created by potrace 1.11, written by Peter Selinger 2001-2013
</metadata>
<g transform="translate(0.000000,122.000000) scale(0.100000,-0.100000)"
fill="#000000" stroke="none">
<path d="M0 610 l0 -610 610 0 610 0 0 610 0 610 -610 0 -610 0 0 -610z m725
355 c19 -18 25 -35 25 -70 0 -41 -2 -45 -25 -45 -22 0 -25 4 -25 33 0 49 -14
57 -100 57 -86 0 -100 -8 -100 -57 0 -29 -3 -33 -25 -33 -23 0 -25 4 -25 45 0
35 6 52 25 70 22 23 31 25 125 25 94 0 103 -2 125 -25z m280 -160 c22 -21 25
-33 25 -99 l0 -74 -52 -12 c-61 -13 -177 -27 -260 -33 -55 -3 -57 -3 -60 22
-3 24 -6 26 -58 26 -52 0 -55 -1 -58 -27 -3 -26 -4 -26 -65 -21 -89 7 -194 20
-254 33 l-53 12 0 74 c0 66 3 78 25 99 l24 25 381 0 381 0 24 -25z m-367 -247
l3 -58 -41 0 -40 0 0 53 c0 63 4 69 45 65 29 -3 30 -5 33 -60z m-328 7 c52 -8
125 -15 162 -15 l67 0 3 -32 c3 -33 3 -33 58 -33 53 0 55 1 60 30 l5 30 101 7
c94 6 172 17 237 33 l27 7 0 -161 c0 -159 -1 -162 -25 -186 l-24 -25 -381 0
-381 0 -24 25 c-24 24 -25 27 -25 186 l0 161 23 -6 c12 -4 65 -13 117 -21z"/>
</g>
</svg>
